<?xml version="1.0" standalone="no"?>
<!DOCTYPE svg PUBLIC "-//W3C//DTD SVG 20010904//EN"
 "http://www.w3.org/TR/2001/REC-SVG-20010904/DTD/svg10.dtd">
<svg version="1.0" xmlns="http://www.w3.org/2000/svg"
 width="260.000000pt" height="260.000000pt" viewBox="0 0 260.000000 260.000000"
 preserveAspectRatio="xMidYMid meet">
<metadata>
Created by potrace 1.14, written by Peter Selinger 2001-2017
</metadata>
<g transform="translate(0.000000,260.000000) scale(0.100000,-0.100000)"
fill="#000000" stroke="none">
<path d="M0 1300 l0 -1300 1300 0 1300 0 0 1300 0 1300 -1300 0 -1300 0 0
-1300z m1553 801 c26 -4 50 -10 52 -13 3 -3 -8 -65 -24 -139 -36 -166 -44
-209 -36 -209 3 0 41 -7 83 -16 168 -34 295 -121 354 -242 32 -64 33 -71 33
-187 -1 -156 -28 -237 -121 -355 -110 -140 -293 -226 -499 -234 l-80 -3 -20
-99 -21 -99 -146 -3 -145 -3 22 101 c12 55 20 102 17 105 -3 3 -25 5 -48 5
-59 0 -139 18 -199 45 -110 49 -192 158 -215 285 -6 36 -15 77 -20 93 -5 16
-5 25 1 21 5 -3 9 11 9 30 0 115 56 245 143 330 102 101 248 168 445 206 58
11 107 22 109 24 11 11 59 282 51 285 -28 10 -198 -23 -255 -49 -86 -39 -106
-72 -100 -164 l4 -68 -46 4 c-104 10 -159 66 -148 151 14 102 146 175 372 206
75 11 349 5 428 -8z"/>
<path d="M1141 1614 c-214 -72 -311 -222 -313 -479 -1 -182 69 -304 188 -329
30 -7 31 -6 42 46 82 377 162 765 160 775 -2 9 -23 5 -77 -13z"/>
<path d="M1492 1528 c-12 -57 -24 -112 -27 -123 -2 -11 -13 -65 -25 -120 -12
-55 -37 -174 -56 -265 -19 -91 -38 -178 -41 -194 l-6 -29 54 7 c74 10 161 59
218 123 52 58 117 176 106 193 -3 5 -2 10 3 10 17 0 36 101 37 190 0 146 -52
242 -158 291 -77 34 -80 32 -105 -83z"/>
</g>
</svg>
